<?xml version="1.0" standalone="no"?>
<!DOCTYPE svg PUBLIC "-//W3C//DTD SVG 20010904//EN"
 "http://www.w3.org/TR/2001/REC-SVG-20010904/DTD/svg10.dtd">
<svg version="1.0" xmlns="http://www.w3.org/2000/svg"
 width="708.000000pt" height="596.000000pt" viewBox="0 0 708.000000 596.000000"
 preserveAspectRatio="xMidYMid meet">

<g transform="translate(0.000000,596.000000) scale(0.100000,-0.100000)"
fill="#000000" stroke="none">
<path d="M6496 4858 c3 -5 -2 -11 -10 -14 -9 -3 -16 -14 -16 -24 0 -10 -7 -23
-15 -30 -8 -7 -13 -15 -10 -19 2 -4 -3 -20 -11 -35 -21 -42 -18 -61 21 -114
47 -66 90 -161 116 -257 19 -69 22 -107 23 -280 1 -147 -4 -229 -17 -310 -43
-268 -148 -623 -270 -910 -90 -215 -91 -231 -1 -64 31 57 79 147 107 199 27
52 55 102 61 110 7 8 19 32 29 52 9 20 83 158 165 305 220 397 235 427 283
563 l44 125 0 170 0 170 -39 80 c-61 124 -180 226 -309 267 -45 14 -157 26
-151 16z"/>
<path d="M5710 4790 c-58 -9 -150 -30 -205 -45 -55 -15 -109 -29 -120 -30 -11
-2 -21 -4 -22 -5 -2 -2 -7 -4 -13 -5 -5 -1 -11 -4 -12 -5 -2 -1 -12 -4 -23 -5
-44 -6 -391 -140 -525 -203 -382 -179 -582 -282 -915 -471 -132 -74 -164 -97
-145 -99 50 -6 55 -16 10 -21 l-45 -6 25 -22 c14 -12 57 -46 95 -75 180 -135
379 -317 489 -448 169 -200 241 -323 307 -520 40 -119 42 -132 47 -271 8 -247
-31 -414 -154 -664 -35 -71 -55 -119 -44 -106 11 13 20 18 20 12 0 -14 -87
-156 -105 -171 -8 -7 -15 -18 -15 -24 1 -6 11 2 24 18 22 26 29 29 102 31 208
7 331 7 347 0 10 -4 39 -5 65 -1 26 3 79 8 117 10 156 10 231 18 250 26 11 5
45 11 75 14 30 3 80 12 110 21 30 8 80 16 110 16 30 1 61 6 67 11 27 21 28
-62 2 -115 -9 -19 -7 -18 10 3 32 38 77 165 102 281 30 142 30 374 1 539 -36
199 -118 412 -230 600 -146 243 -411 491 -677 631 -171 91 -302 137 -540 192
l-20 5 20 1 c57 3 331 -81 465 -142 67 -31 205 -114 285 -170 79 -56 253 -207
303 -262 18 -20 37 -33 42 -30 6 3 10 2 10 -3 0 -5 29 -8 65 -6 38 1 63 -1 60
-7 -4 -5 -4 -9 0 -9 3 0 10 10 15 23 7 18 9 19 9 4 1 -17 10 -18 96 -15 52 1
95 6 95 10 0 4 14 5 30 2 19 -4 30 -2 30 5 0 15 37 14 43 -1 4 -10 7 -10 14
-1 6 8 63 14 178 19 94 3 174 10 179 15 13 11 66 12 66 0 0 -11 53 -1 62 13 5
7 8 4 8 -6 0 -22 18 -23 41 -2 17 16 44 11 34 -6 -3 -5 -1 -11 5 -15 5 -3 15
6 21 22 22 58 69 253 96 398 23 129 27 177 27 340 1 222 -16 310 -86 455 -48
100 -137 194 -222 234 -117 55 -353 71 -556 36z m-1777 -877 c-24 -2 -62 -2
-85 0 -24 2 -5 4 42 4 47 0 66 -2 43 -4z m160 0 c-7 -2 -19 -2 -25 0 -7 3 -2
5 12 5 14 0 19 -2 13 -5z m142 -12 c34 -7 35 -9 10 -9 -16 0 -43 4 -60 8 -42
11 -1 11 50 1z"/>
<path d="M3555 3754 c-22 -26 -51 -64 -65 -85 -33 -52 -51 -58 -45 -16 3 18 3
26 -1 19 -3 -6 -10 -10 -15 -7 -5 4 -6 -2 -2 -11 4 -12 3 -15 -6 -10 -16 10
-43 -13 -37 -31 4 -8 1 -11 -5 -7 -6 3 -8 18 -5 33 4 14 3 21 -1 15 -4 -6 -30
-14 -58 -18 -46 -6 -324 -17 -420 -16 -22 0 -56 -4 -75 -9 -67 -18 -231 -33
-243 -23 -8 7 -25 6 -52 -4 -22 -8 -58 -14 -80 -13 -82 1 -174 -14 -193 -31
-13 -12 -24 -15 -34 -9 -18 10 -12 47 22 148 25 75 1 44 -50 -64 -75 -158
-117 -389 -106 -575 41 -699 499 -1305 1163 -1540 219 -78 413 -106 670 -97
169 6 223 13 223 27 0 5 -39 37 -87 72 -226 162 -387 309 -534 483 -243 290
-353 577 -335 875 9 152 70 380 139 515 50 101 158 267 223 345 70 85 77 112
9 34z m-135 -175 c-7 -11 -14 -18 -17 -15 -3 3 0 12 7 21 18 21 23 19 10 -6z"/>
<path d="M3485 3710 c-10 -11 -16 -22 -13 -25 3 -3 13 6 22 20 20 30 16 32 -9
5z"/>
<path d="M1586 2573 c-23 -50 -279 -517 -469 -858 -151 -270 -193 -357 -223
-463 -81 -285 -48 -515 94 -655 95 -93 227 -149 377 -159 38 -3 40 -2 43 30 2
17 8 32 13 32 5 0 15 11 21 25 7 15 19 25 33 25 11 0 26 5 32 11 8 8 19 6 42
-5 17 -9 70 -26 118 -37 153 -37 471 -16 703 46 36 10 72 19 80 19 9 1 21 5
28 10 6 4 12 5 12 2 0 -12 349 118 545 202 331 142 672 320 1006 526 107 66
109 68 74 61 -16 -2 -91 -8 -165 -11 -454 -21 -900 127 -1251 415 -35 29 -107
95 -161 147 -53 52 -100 94 -105 94 -4 0 3 -10 17 -21 22 -19 23 -20 4 -16
-17 4 -20 0 -16 -27 4 -27 2 -29 -9 -15 -12 13 -31 15 -122 10 -60 -3 -116 -2
-124 3 -22 12 -185 -2 -195 -17 -6 -9 -8 -9 -8 2 0 12 -26 13 -159 7 -260 -11
-302 -16 -356 -41 -27 -13 -58 -26 -67 -29 -10 -3 -18 -14 -18 -24 0 -11 -7
-35 -15 -55 -19 -47 -50 -185 -71 -327 -24 -160 -24 -390 -1 -500 20 -94 69
-224 95 -255 10 -11 26 -36 36 -55 l19 -35 -32 30 c-74 69 -133 229 -152 407
-11 109 2 341 27 486 45 267 183 705 318 1015 9 20 13 37 8 37 -5 0 -16 -17
-26 -37z"/>
<path d="M1421 2013 c-20 -83 -20 -85 -6 -73 7 6 11 20 8 30 -4 14 0 20 10 20
12 0 16 8 14 30 -3 41 -14 38 -26 -7z"/>
</g>
</svg>
