<svg width="88" height="64" xmlns="http://www.w3.org/2000/svg" xmlns:xlink="http://www.w3.org/1999/xlink" xml:space="preserve" overflow="hidden"><defs><clipPath id="clip0"><rect x="210" y="17" width="88" height="64"/></clipPath><linearGradient x1="82.8872" y1="21.897" x2="65.674" y2="11.1345" gradientUnits="userSpaceOnUse" spreadMethod="pad" id="fill1"><stop offset="0" stop-color="#003E34"/><stop offset="0.42" stop-color="#003E34"/><stop offset="0.5" stop-color="#004A41"/><stop offset="0.64" stop-color="#006B65"/><stop offset="0.84" stop-color="#009F9F"/><stop offset="0.91" stop-color="#00B4B6"/><stop offset="1" stop-color="#00B4B6"/></linearGradient><linearGradient x1="51.4452" y1="7.7358" x2="54.5733" y2="57.2957" gradientUnits="userSpaceOnUse" spreadMethod="pad" id="fill2"><stop offset="0" stop-color="#003E34"/><stop offset="0.22" stop-color="#003E34"/><stop offset="0.31" stop-color="#0D4A40"/><stop offset="0.38" stop-color="#0C5047"/><stop offset="0.48" stop-color="#09635C"/><stop offset="0.6" stop-color="#06817D"/><stop offset="0.74" stop-color="#01ABAC"/><stop offset="0.76" stop-color="#00B4B6"/><stop offset="1" stop-color="#00B4B6"/></linearGradient><linearGradient x1="58.5131" y1="35.7453" x2="57.7353" y2="-1.62325" gradientUnits="userSpaceOnUse" spreadMethod="pad" id="fill3"><stop offset="0" stop-color="#00B4B6"/><stop offset="0.3" stop-color="#00B4B6"/><stop offset="0.5" stop-color="#058784"/><stop offset="0.72" stop-color="#0A5B53"/><stop offset="0.83" stop-color="#0D4A40"/><stop offset="1" stop-color="#0D4A40"/></linearGradient><linearGradient x1="39.0087" y1="12.986" x2="39.516" y2="12.3266" gradientUnits="userSpaceOnUse" spreadMethod="pad" id="fill4"><stop offset="0" stop-color="#00B4B6"/><stop offset="0.42" stop-color="#00B4B6"/><stop offset="0.5" stop-color="#01A7A8"/><stop offset="0.66" stop-color="#058784"/><stop offset="0.87" stop-color="#0B534A"/><stop offset="0.91" stop-color="#0D4A40"/><stop offset="1" stop-color="#0D4A40"/></linearGradient><linearGradient x1="0.16063" y1="38.0703" x2="17.3823" y2="48.8328" gradientUnits="userSpaceOnUse" spreadMethod="pad" id="fill5"><stop offset="0" stop-color="#003E34"/><stop offset="0.42" stop-color="#003E34"/><stop offset="0.5" stop-color="#004A41"/><stop offset="0.64" stop-color="#006B65"/><stop offset="0.84" stop-color="#009F9F"/><stop offset="0.91" stop-color="#00B4B6"/><stop offset="1" stop-color="#00B4B6"/></linearGradient><linearGradient x1="31.6026" y1="52.2314" x2="28.4745" y2="2.6716" gradientUnits="userSpaceOnUse" spreadMethod="pad" id="fill6"><stop offset="0" stop-color="#003E34"/><stop offset="0.22" stop-color="#003E34"/><stop offset="0.31" stop-color="#0D4A40"/><stop offset="0.38" stop-color="#0C5047"/><stop offset="0.48" stop-color="#09635C"/><stop offset="0.6" stop-color="#06817D"/><stop offset="0.74" stop-color="#01ABAC"/><stop offset="0.76" stop-color="#00B4B6"/><stop offset="1" stop-color="#00B4B6"/></linearGradient><linearGradient x1="24.5347" y1="24.2219" x2="25.3126" y2="61.5905" gradientUnits="userSpaceOnUse" spreadMethod="pad" id="fill7"><stop offset="0" stop-color="#00B4B6"/><stop offset="0.3" stop-color="#00B4B6"/><stop offset="0.5" stop-color="#058784"/><stop offset="0.72" stop-color="#0A5B53"/><stop offset="0.83" stop-color="#0D4A40"/><stop offset="1" stop-color="#0D4A40"/></linearGradient><linearGradient x1="44.0391" y1="46.9812" x2="43.5318" y2="47.6407" gradientUnits="userSpaceOnUse" spreadMethod="pad" id="fill8"><stop offset="0" stop-color="#00B4B6"/><stop offset="0.42" stop-color="#00B4B6"/><stop offset="0.5" stop-color="#01A7A8"/><stop offset="0.66" stop-color="#058784"/><stop offset="0.87" stop-color="#0B534A"/><stop offset="0.91" stop-color="#0D4A40"/><stop offset="1" stop-color="#0D4A40"/></linearGradient></defs><g clip-path="url(#clip0)" transform="translate(-210 -17)"><path d="M119.461 10.6357 119.461 13.4087 99.7453 13.4087 99.7453 21.5503 115.589 21.5503 115.589 24.3572 99.7453 24.3572 99.7453 35.2719 96.9723 35.2719 96.9723 10.6357 119.461 10.6357Z" fill="#002B24" transform="matrix(1.00711 0 0 1 210 17)"/><path d="M146.118 15.6999 143.345 15.6999 143.345 14.7445C143.345 14.0259 142.728 13.4087 142.009 13.4087L125.582 13.4087C124.863 13.4087 124.246 14.0259 124.246 14.7445L124.246 20.2568C124.246 20.9754 124.863 21.5588 125.582 21.5588L142.009 21.5588C144.3 21.5588 146.118 23.4103 146.118 25.6676L146.118 31.1799C146.118 33.4711 144.3 35.2888 142.009 35.2888L125.582 35.2888C123.291 35.2888 121.473 33.4711 121.473 31.1799L121.473 30.2246 124.246 30.2246 124.246 31.1799C124.246 31.8985 124.863 32.5157 125.582 32.5157L142.009 32.5157C142.728 32.5157 143.345 31.8985 143.345 31.1799L143.345 25.6676C143.345 24.949 142.728 24.3657 142.009 24.3657L125.582 24.3657C123.291 24.3657 121.473 22.5141 121.473 20.2568L121.473 14.7445C121.473 12.4534 123.291 10.6357 125.582 10.6357L142.009 10.6357C144.3 10.6357 146.118 12.4534 146.118 14.7445L146.118 15.6999Z" fill="#002B24" transform="matrix(1.00711 0 0 1 210 17)"/><path d="M149.812 10.6357 152.585 10.6357 152.585 35.2803 149.812 35.2803 149.812 10.6357Z" fill="#002B24" transform="matrix(1.00711 0 0 1 210 17)"/><path d="M187.215 10.6357C189.506 10.6357 191.324 12.4534 191.324 14.7445L191.324 31.1715C191.324 33.4626 189.506 35.2803 187.215 35.2803L166.679 35.2803 166.679 10.6357 187.215 10.6357ZM188.551 14.7361C188.551 14.0174 187.933 13.4003 187.215 13.4003L170.788 13.4003C170.069 13.4003 169.452 14.0174 169.452 14.7361L169.452 31.163C169.452 31.8816 170.069 32.4988 170.788 32.4988L187.215 32.4988C187.933 32.4988 188.551 31.8816 188.551 31.163L188.551 14.7361Z" fill="#002B24" transform="matrix(1.00711 0 0 1 210 17)"/><path d="M215.748 10.6357C218.04 10.6357 219.857 12.4534 219.857 14.7445L219.857 31.1715C219.857 33.4626 218.04 35.2803 215.748 35.2803L195.213 35.2803 195.213 10.6357 215.748 10.6357ZM217.084 14.7361C217.084 14.0174 216.467 13.4003 215.748 13.4003L199.322 13.4003C198.603 13.4003 197.986 14.0174 197.986 14.7361L197.986 31.163C197.986 31.8816 198.603 32.4988 199.322 32.4988L215.748 32.4988C216.467 32.4988 217.084 31.8816 217.084 31.163L217.084 14.7361Z" fill="#002B24" transform="matrix(1.00711 0 0 1 210 17)"/><path d="M248.163 15.6999 245.39 15.6999 245.39 14.7445C245.39 14.0259 244.773 13.4087 244.054 13.4087L227.627 13.4087C226.908 13.4087 226.291 14.0259 226.291 14.7445L226.291 20.2568C226.291 20.9754 226.908 21.5588 227.627 21.5588L244.054 21.5588C246.345 21.5588 248.163 23.4103 248.163 25.6676L248.163 31.1799C248.163 33.4711 246.345 35.2888 244.054 35.2888L227.627 35.2888C225.336 35.2888 223.518 33.4711 223.518 31.1799L223.518 30.2246 226.291 30.2246 226.291 31.1799C226.291 31.8985 226.908 32.5157 227.627 32.5157L244.054 32.5157C244.773 32.5157 245.39 31.8985 245.39 31.1799L245.39 25.6676C245.39 24.949 244.773 24.3657 244.054 24.3657L227.627 24.3657C225.336 24.3657 223.518 22.5141 223.518 20.2568L223.518 14.7445C223.518 12.4534 225.336 10.6357 227.627 10.6357L244.054 10.6357C246.345 10.6357 248.163 12.4534 248.163 14.7445L248.163 15.6999Z" fill="#002B24" transform="matrix(1.00711 0 0 1 210 17)"/><path d="M83.0394 7.99789C82.8956 11.0161 81.4246 13.7554 80.0549 16.3762 77.2058 21.8293 73.9678 27.0542 71.1017 32.4988 71.0172 32.6594 70.9411 32.8116 70.865 32.9807 71.1017 32.4734 71.3384 31.9662 71.5667 31.4505 73.9255 26.2087 75.963 20.7472 77.172 15.1588 77.8906 11.8531 78.0428 8.42061 76.521 5.30093 74.1791 0.524176 68.7598 0.473449 64.2536 1.64861 61.6497 2.31651 58.9865 3.05205 56.4925 4.04967 61.7258 1.94452 67.3818 0.262089 72.353 0.0253649 73.4267-0.0253616 74.5088-0.0169072 75.5741 0.101455 77.9498 0.363542 80.4523 1.20898 81.8642 3.26341 82.8111 4.64148 83.1154 6.34082 83.0394 7.98943L83.0394 7.99789Z" fill="url(#fill1)" transform="matrix(1.00711 0 0 1 210 17)"/><path d="M66.6716 36.6415C66.6885 39.3892 66.139 41.9678 64.8877 44.3688 64.8877 44.3773 64.8793 44.3857 64.8708 44.4027 64.093 45.73 63.07 46.9305 61.7258 47.8943 54.4465 53.1023 44.6985 46.7276 44.6985 46.7276 56.0275 34.1728 52.8571 23.1313 38.3408 13.265L43.777 13.3665C54.083 13.5609 62.7741 20.4259 65.6486 29.8188 66.2912 31.8986 66.6378 34.0967 66.6631 36.3794 66.6631 36.4724 66.6631 36.5569 66.6631 36.6499L66.6716 36.6415Z" fill="url(#fill2)" transform="matrix(1.00711 0 0 1 210 17)"/><path d="M77.1635 15.1503C75.9546 20.7387 73.917 26.2003 71.5583 31.442 71.33 31.9577 71.1017 32.465 70.8565 32.9723 70.5268 33.6909 70.1886 34.4095 69.842 35.1197 68.7345 37.4108 67.5593 39.6851 66.3081 41.9086 66.232 42.0439 65.2597 43.7009 64.93 44.2674 64.9131 44.3012 64.8877 44.335 64.8708 44.3604 66.1221 41.9678 66.6716 39.3807 66.6547 36.633 66.6547 36.54 66.6547 36.4555 66.6547 36.3625 66.6293 34.0798 66.2827 31.8816 65.6402 29.8019 62.7657 20.409 54.0745 13.544 43.7686 13.3495L38.3324 13.2481C38.3324 13.2481 38.3408 13.2396 38.3493 13.2396 38.4085 13.2058 38.4592 13.172 38.5184 13.1297 38.5522 13.1044 38.5945 13.079 38.6367 13.0536 38.6705 13.0367 38.7044 13.0114 38.7382 12.986 38.772 12.9691 38.8058 12.9522 38.8396 12.9268 39.0594 12.8 39.3469 12.6225 39.6935 12.4196 39.7104 12.4026 39.7358 12.3942 39.7527 12.3857 40.0655 12.1997 40.4206 11.9968 40.7757 11.7855 40.9786 11.6671 41.1731 11.5572 41.376 11.4388 41.3929 11.4388 41.4098 11.4219 41.4267 11.4135 41.5958 11.312 41.7649 11.219 41.934 11.126L42.0354 11.0668C42.1538 10.9992 42.2721 10.9316 42.382 10.8639 42.4243 10.847 42.4581 10.8217 42.4919 10.8048 43.4135 10.2721 44.1659 9.84095 44.3096 9.77332 47.8436 7.79498 51.4283 6.13792 55.0975 4.61612 55.1736 4.5823 55.2497 4.54848 55.3258 4.52312 55.6386 4.3963 55.9598 4.26103 56.2727 4.13422 56.3403 4.10885 56.4164 4.07504 56.484 4.04967 58.9781 3.0436 61.6412 2.31652 64.2452 1.64862 68.7514 0.481905 74.1707 0.532631 76.5126 5.30093 78.0428 8.42061 77.8822 11.8447 77.1635 15.1588L77.1635 15.1503Z" fill="url(#fill3)" transform="matrix(1.00711 0 0 1 210 17)"/><path d="M39.702 12.428C39.3554 12.6309 39.0679 12.8085 38.8481 12.9353 38.8143 12.9522 38.7805 12.9775 38.7466 12.9945 38.9834 12.8423 39.3131 12.6478 39.6935 12.428L39.702 12.428Z" fill="url(#fill4)" transform="matrix(1.00711 0 0 1 210 17)"/><path d="M0.00845012 51.9694C0.152175 48.9511 1.62325 46.2119 2.99286 43.591 5.842 38.1379 9.08005 32.9131 11.9461 27.4684 12.0306 27.3078 12.1067 27.1556 12.1828 26.9865 11.9461 27.4938 11.7094 28.0011 11.4811 28.5168 9.12232 33.7585 7.0848 39.2201 5.87582 44.8085 5.1572 48.1141 5.00502 51.5466 6.52681 54.6663 8.86869 59.4431 14.288 59.4938 18.7942 58.3186 21.3981 57.6507 24.0613 56.9152 26.5553 55.9176 21.3051 58.0143 15.6491 59.7052 10.6779 59.9334 9.60422 59.9841 8.52206 59.9757 7.4568 59.8573 5.08111 59.5952 2.5786 58.7498 1.16671 56.6954 0.219811 55.3173-0.0845486 53.618-0.00845874 51.9694L0.00845012 51.9694Z" fill="url(#fill5)" transform="matrix(1.00711 0 0 1 210 17)"/><path d="M16.3847 23.3258C16.3677 20.5781 16.9173 17.9995 18.1685 15.5984 18.1685 15.59 18.177 15.5815 18.1854 15.5646 18.9633 14.2373 19.9862 13.0367 21.3305 12.0729 28.6098 6.865 38.3577 13.2396 38.3577 13.2396 27.0288 25.7945 30.1992 36.8359 44.7154 46.7023L39.2792 46.6008C28.9733 46.4063 20.2821 39.5414 17.4076 30.1485 16.7651 28.0687 16.4185 25.8705 16.3931 23.5878 16.3931 23.4949 16.3931 23.4103 16.3931 23.3173L16.3847 23.3258Z" fill="url(#fill6)" transform="matrix(1.00711 0 0 1 210 17)"/><path d="M5.88428 44.8169C7.09326 39.2285 9.13078 33.767 11.4896 28.5252 11.7178 28.0095 11.9461 27.5023 12.1913 26.995 12.521 26.2764 12.8592 25.5577 13.2058 24.8476 14.3133 22.5564 15.4885 20.2822 16.7398 18.0587 16.8159 17.9234 17.7881 16.2663 18.1178 15.6999 18.1347 15.6661 18.1601 15.6322 18.177 15.6069 16.9258 17.9995 16.3762 20.5865 16.3931 23.3342 16.3931 23.4272 16.3931 23.5118 16.3931 23.6048 16.4185 25.8875 16.7651 28.0856 17.4077 30.1654 20.2822 39.5583 28.9733 46.4233 39.2793 46.6177L44.7155 46.7192C44.7155 46.7192 44.707 46.7276 44.6985 46.7276 44.6394 46.7614 44.5886 46.7953 44.5295 46.8375 44.4956 46.8629 44.4534 46.8883 44.4111 46.9136 44.3773 46.9305 44.3435 46.9559 44.3096 46.9812 44.2758 46.9982 44.242 47.0151 44.2082 47.0404 43.9884 47.1672 43.7009 47.3448 43.3543 47.5477 43.3374 47.5646 43.312 47.5731 43.2951 47.5815 42.9823 47.7675 42.6272 47.9704 42.2721 48.1818 42.0692 48.3001 41.8748 48.41 41.6719 48.5284 41.655 48.5284 41.638 48.5453 41.6211 48.5538 41.452 48.6552 41.283 48.7482 41.1139 48.8412L41.0124 48.9004C40.8941 48.968 40.7757 49.0357 40.6658 49.1033 40.6235 49.1202 40.5897 49.1456 40.5559 49.1625 39.6343 49.6951 38.8819 50.1263 38.7382 50.1939 35.2042 52.1723 31.6196 53.8293 27.9503 55.3511 27.8742 55.3849 27.7982 55.4188 27.7221 55.4441 27.4093 55.5709 27.088 55.7062 26.7752 55.833 26.7075 55.8584 26.6314 55.8922 26.5638 55.9176 24.0698 56.9237 21.4066 57.6507 18.8026 58.3186 14.2964 59.4853 8.87715 59.4346 6.53527 54.6663 5.00502 51.5466 5.16565 48.1226 5.88428 44.8085L5.88428 44.8169Z" fill="url(#fill7)" transform="matrix(1.00711 0 0 1 210 17)"/><path d="M43.3543 47.5392C43.7009 47.3363 43.9884 47.1588 44.2082 47.032 44.242 47.0151 44.2758 46.9897 44.3096 46.9728 44.0729 47.125 43.7432 47.3194 43.3627 47.5392L43.3543 47.5392Z" fill="url(#fill8)" transform="matrix(1.00711 0 0 1 210 17)"/><path d="M152.374 62.4867C152.112 62.4867 151.901 62.4359 151.723 62.3429 151.546 62.2499 151.41 62.1316 151.3 61.9963 151.19 61.861 151.114 61.7258 151.055 61.5905L150.996 61.5905 150.996 62.3937 150.514 62.3937 150.514 56.67 151.013 56.67 151.013 58.9189 151.055 58.9189C151.114 58.7921 151.199 58.6568 151.3 58.5215 151.402 58.3863 151.546 58.2679 151.723 58.1749 151.901 58.0819 152.112 58.0312 152.374 58.0312 152.729 58.0312 153.034 58.1242 153.304 58.3102 153.566 58.4962 153.778 58.7583 153.921 59.088 154.073 59.4177 154.141 59.8066 154.141 60.2462 154.141 60.6859 154.065 61.0748 153.921 61.4129 153.778 61.7511 153.566 62.0132 153.304 62.1908 153.042 62.3767 152.729 62.4697 152.374 62.4697L152.374 62.4867ZM152.315 62.0301C152.594 62.0301 152.839 61.954 153.034 61.7934 153.228 61.6328 153.38 61.4214 153.482 61.1509 153.583 60.8803 153.634 60.5844 153.634 60.2547 153.634 59.925 153.583 59.6291 153.482 59.3585 153.38 59.0964 153.228 58.8851 153.034 58.7244 152.839 58.5638 152.594 58.4877 152.315 58.4877 152.036 58.4877 151.791 58.5638 151.596 58.716 151.402 58.8682 151.25 59.0711 151.148 59.3332 151.047 59.5952 150.996 59.8996 150.996 60.2462 150.996 60.5929 151.047 60.8972 151.148 61.1593 151.25 61.4214 151.402 61.6412 151.596 61.7934 151.791 61.9456 152.027 62.0217 152.306 62.0217L152.315 62.0301Z" fill="#002B24" transform="matrix(1.00711 0 0 1 210 17)"/><path d="M155.173 64C155.071 64 154.987 64 154.902 63.9746 154.817 63.9577 154.75 63.9324 154.699 63.907L154.834 63.4758 154.894 63.4927C155.13 63.5604 155.333 63.5519 155.494 63.4674 155.663 63.3828 155.798 63.1799 155.908 62.8756L156.069 62.4359 154.488 58.0988 155.029 58.0988 156.297 61.7427 156.339 61.7427 157.616 58.0988 158.157 58.0988 156.348 63.07C156.272 63.2814 156.179 63.4505 156.069 63.5857 155.959 63.721 155.832 63.8309 155.68 63.8986 155.536 63.9662 155.367 64 155.189 64L155.173 64Z" fill="#002B24" transform="matrix(1.00711 0 0 1 210 17)"/><path d="M160.938 62.3937 160.938 56.67 164.253 56.67 164.253 57.1435 161.463 57.1435 161.463 59.3332 163.99 59.3332 163.99 59.7982 161.463 59.7982 161.463 62.3852 160.938 62.3852 160.938 62.3937Z" fill="#002B24" transform="matrix(1.00711 0 0 1 210 17)"/><path d="M167.017 62.4867C166.628 62.4867 166.29 62.419 166.003 62.2922 165.715 62.1654 165.487 61.9879 165.326 61.7511 165.166 61.5229 165.073 61.2523 165.047 60.9564L165.58 60.9564C165.597 61.1847 165.673 61.3791 165.808 61.5313 165.935 61.6835 166.104 61.8018 166.315 61.8864 166.527 61.9709 166.755 62.0048 167.017 62.0048 167.305 62.0048 167.558 61.954 167.778 61.861 167.998 61.768 168.175 61.6328 168.302 61.4552 168.429 61.2861 168.497 61.0832 168.497 60.855 168.497 60.6605 168.446 60.4999 168.345 60.3646 168.243 60.2378 168.099 60.1279 167.922 60.0349 167.744 59.9419 167.533 59.8658 167.296 59.7982L166.62 59.5952C166.172 59.4684 165.825 59.2824 165.571 59.0457 165.326 58.809 165.199 58.5046 165.199 58.1411 165.199 57.8367 165.284 57.5662 165.445 57.3295 165.605 57.0927 165.834 56.9152 166.113 56.7799 166.392 56.6447 166.713 56.5855 167.059 56.5855 167.406 56.5855 167.727 56.6531 168.006 56.7799 168.277 56.9152 168.497 57.0927 168.657 57.321 168.818 57.5493 168.903 57.8029 168.919 58.0988L168.412 58.0988C168.378 57.7775 168.243 57.5324 167.989 57.3379 167.736 57.1435 167.423 57.0589 167.043 57.0589 166.78 57.0589 166.544 57.1012 166.341 57.1942 166.138 57.2872 165.977 57.414 165.867 57.5746 165.749 57.7353 165.698 57.9213 165.698 58.1242 165.698 58.3271 165.757 58.4877 165.867 58.623 165.977 58.7583 166.121 58.8682 166.299 58.9527 166.476 59.0373 166.654 59.1049 166.84 59.1641L167.44 59.3332C167.626 59.3839 167.803 59.4515 167.989 59.5276 168.167 59.6037 168.336 59.7052 168.488 59.8235 168.64 59.9419 168.767 60.0856 168.86 60.2547 168.953 60.4238 169.004 60.6267 169.004 60.8634 169.004 61.1678 168.928 61.4383 168.767 61.6835 168.607 61.9287 168.378 62.1231 168.082 62.2668 167.787 62.4106 167.431 62.4782 167.017 62.4782L167.017 62.4867Z" fill="#002B24" transform="matrix(1.00711 0 0 1 210 17)"/><path d="M170.534 56.67 170.534 62.3937 170.01 62.3937 170.01 56.67 170.534 56.67Z" fill="#002B24" transform="matrix(1.00711 0 0 1 210 17)"/><path d="M173.789 56.67 175.573 61.7173 175.624 61.7173 177.416 56.67 177.966 56.67 175.886 62.3937 175.328 62.3937 173.24 56.67 173.789 56.67Z" fill="#002B24" transform="matrix(1.00711 0 0 1 210 17)"/><path d="M178.836 57.3633C178.735 57.3633 178.642 57.3295 178.574 57.2618 178.507 57.1942 178.464 57.1096 178.464 57.0082 178.464 56.9067 178.498 56.8306 178.574 56.7546 178.65 56.6869 178.735 56.6531 178.836 56.6531 178.938 56.6531 179.022 56.6869 179.099 56.7546 179.166 56.8222 179.208 56.9067 179.208 57.0082 179.208 57.1096 179.175 57.1942 179.099 57.2618 179.031 57.3295 178.938 57.3633 178.836 57.3633ZM178.591 62.3937 178.591 58.0988 179.09 58.0988 179.09 62.3937 178.591 62.3937Z" fill="#002B24" transform="matrix(1.00711 0 0 1 210 17)"/><path d="M181.889 62.4867C181.491 62.4867 181.145 62.3937 180.849 62.2077 180.553 62.0217 180.324 61.7596 180.172 61.4299 180.012 61.1001 179.936 60.7112 179.936 60.2801 179.936 59.8489 180.012 59.46 180.172 59.1303 180.333 58.7921 180.553 58.53 180.832 58.3355 181.111 58.1411 181.44 58.0481 181.812 58.0481 182.041 58.0481 182.269 58.0904 182.489 58.1749 182.709 58.2594 182.903 58.3947 183.081 58.5638 183.258 58.7329 183.393 58.9612 183.495 59.2233 183.596 59.4938 183.647 59.8066 183.647 60.1786L183.647 60.3984 180.291 60.3984 180.291 59.9588 183.376 59.9588 183.148 60.1279C183.148 59.8151 183.098 59.5361 182.988 59.2909 182.878 59.0457 182.726 58.8513 182.531 58.7075 182.337 58.5638 182.1 58.4962 181.821 58.4962 181.542 58.4962 181.305 58.5723 181.102 58.716 180.891 58.8597 180.73 59.0542 180.62 59.2909 180.51 59.5276 180.451 59.7897 180.451 60.0771L180.451 60.3308C180.451 60.6774 180.51 60.9733 180.629 61.2269 180.747 61.4806 180.916 61.6835 181.136 61.8188 181.356 61.9625 181.61 62.0301 181.914 62.0301 182.117 62.0301 182.294 61.9963 182.447 61.9371 182.599 61.8695 182.726 61.7849 182.835 61.675 182.937 61.5651 183.021 61.4468 183.072 61.3199L183.546 61.4806C183.478 61.6581 183.368 61.8272 183.224 61.9794 183.081 62.1316 182.895 62.2584 182.675 62.3514 182.455 62.4444 182.201 62.4951 181.914 62.4951L181.889 62.4867Z" fill="#002B24" transform="matrix(1.00711 0 0 1 210 17)"/><path d="M186.141 58.0988 186.141 58.53 184.095 58.53 184.095 58.0988 186.141 58.0988ZM184.729 57.0758 185.228 57.0758 185.228 61.2692C185.228 61.5059 185.287 61.675 185.397 61.7934 185.515 61.9118 185.676 61.9709 185.879 61.9709 185.921 61.9709 185.972 61.9709 186.023 61.9625 186.073 61.9625 186.124 61.9456 186.175 61.9371L186.285 62.3852C186.226 62.4106 186.158 62.4275 186.082 62.4359 186.006 62.4444 185.93 62.4528 185.845 62.4528 185.524 62.4528 185.262 62.3514 185.05 62.1569 184.839 61.9625 184.738 61.7004 184.738 61.3876L184.738 57.0758 184.729 57.0758Z" fill="#002B24" transform="matrix(1.00711 0 0 1 210 17)"/><path d="M187.519 59.7136 187.519 62.3937 187.02 62.3937 187.02 58.0988 187.502 58.0988 187.502 58.7752 187.553 58.7752C187.654 58.5554 187.807 58.3778 188.018 58.2425 188.229 58.1073 188.491 58.0396 188.813 58.0396 189.1 58.0396 189.354 58.0988 189.574 58.2172 189.793 58.3355 189.962 58.5131 190.089 58.7498 190.216 58.9865 190.275 59.2655 190.275 59.6122L190.275 62.3937 189.776 62.3937 189.776 59.646C189.776 59.2909 189.675 59.0119 189.481 58.809 189.286 58.5976 189.016 58.4962 188.686 58.4962 188.458 58.4962 188.263 58.5469 188.086 58.6484 187.908 58.7498 187.773 58.8851 187.671 59.0711 187.57 59.2571 187.519 59.4684 187.519 59.7221L187.519 59.7136Z" fill="#002B24" transform="matrix(1.00711 0 0 1 210 17)"/><path d="M192.541 62.4867C192.279 62.4867 192.042 62.4359 191.831 62.3345 191.62 62.233 191.442 62.0893 191.315 61.8949 191.188 61.7004 191.121 61.4637 191.121 61.1931 191.121 60.9818 191.163 60.8042 191.239 60.6605 191.315 60.5168 191.434 60.3984 191.577 60.3054 191.729 60.2124 191.899 60.1363 192.101 60.0856 192.304 60.0264 192.524 59.9926 192.769 59.9588 193.006 59.925 193.217 59.8996 193.378 59.8827 193.547 59.8573 193.674 59.8235 193.759 59.7812 193.843 59.739 193.885 59.6544 193.885 59.5445L193.885 59.4431C193.885 59.1472 193.801 58.9189 193.623 58.7498 193.446 58.5807 193.201 58.4962 192.871 58.4962 192.541 58.4962 192.304 58.5638 192.11 58.6991 191.915 58.8344 191.78 58.995 191.704 59.181L191.231 59.0119C191.332 58.7752 191.459 58.5892 191.636 58.4539 191.806 58.3102 192 58.2087 192.211 58.1495 192.423 58.0904 192.643 58.0565 192.854 58.0565 193.015 58.0565 193.192 58.0819 193.361 58.1242 193.539 58.1665 193.699 58.2425 193.86 58.344 194.012 58.4454 194.139 58.5976 194.232 58.7836 194.325 58.9696 194.376 59.2063 194.376 59.4938L194.376 62.4021 193.877 62.4021 193.877 61.7258 193.843 61.7258C193.784 61.8526 193.699 61.9709 193.581 62.0893 193.463 62.2077 193.319 62.3091 193.141 62.3852 192.964 62.4613 192.752 62.5036 192.516 62.5036L192.541 62.4867ZM192.609 62.0386C192.871 62.0386 193.099 61.9794 193.294 61.861 193.488 61.7427 193.64 61.5905 193.742 61.3876 193.843 61.1931 193.902 60.9733 193.902 60.745L193.902 60.1279C193.902 60.1279 193.801 60.1955 193.716 60.2209 193.632 60.2462 193.53 60.2716 193.42 60.297 193.31 60.3139 193.192 60.3392 193.082 60.3477 192.972 60.3561 192.871 60.3731 192.778 60.39 192.541 60.4238 192.33 60.4661 192.161 60.5337 191.992 60.6013 191.856 60.6859 191.763 60.7958 191.67 60.9057 191.628 61.0494 191.628 61.2185 191.628 61.4806 191.721 61.675 191.907 61.8188 192.093 61.9625 192.33 62.0301 192.609 62.0301L192.609 62.0386Z" fill="#002B24" transform="matrix(1.00711 0 0 1 210 17)"/><path d="M195.466 62.3937 195.466 58.0988 195.948 58.0988 195.948 58.7667 195.999 58.7667C196.083 58.5469 196.227 58.3694 196.43 58.2425 196.633 58.1157 196.87 58.0481 197.157 58.0481 197.445 58.0481 197.69 58.1157 197.884 58.2594 198.079 58.4032 198.214 58.5892 198.307 58.8259L198.349 58.8259C198.451 58.5892 198.603 58.4032 198.823 58.2594 199.043 58.1157 199.305 58.0481 199.617 58.0481 200.015 58.0481 200.336 58.1749 200.564 58.4285 200.801 58.6822 200.911 59.0457 200.911 59.5192L200.911 62.3937 200.412 62.3937 200.412 59.5192C200.412 59.181 200.328 58.9273 200.15 58.7583 199.981 58.5892 199.744 58.5046 199.465 58.5046 199.136 58.5046 198.882 58.6061 198.704 58.809 198.527 59.0119 198.442 59.2655 198.442 59.5783L198.442 62.4021 197.935 62.4021 197.935 59.4769C197.935 59.1894 197.85 58.9527 197.69 58.7752 197.529 58.5976 197.301 58.5046 197.005 58.5046 196.811 58.5046 196.633 58.5553 196.472 58.6568 196.312 58.7583 196.193 58.8935 196.1 59.0626 196.007 59.2317 195.965 59.4346 195.965 59.6544L195.965 62.4021 195.466 62.4021 195.466 62.3937Z" fill="#002B24" transform="matrix(1.00711 0 0 1 210 17)"/><path d="M205.468 62.4697C205.113 62.4697 204.808 62.4021 204.546 62.2668 204.284 62.1316 204.081 61.9456 203.929 61.7089 203.785 61.4721 203.709 61.2016 203.709 60.9057 203.709 60.6943 203.752 60.4999 203.845 60.3223 203.938 60.1448 204.064 59.9841 204.234 59.832 204.403 59.6798 204.606 59.5107 204.834 59.3332L205.671 58.716C205.865 58.5723 206.017 58.437 206.119 58.2933 206.22 58.158 206.271 57.9889 206.271 57.786 206.271 57.5831 206.195 57.4225 206.051 57.2703 205.908 57.1181 205.722 57.042 205.485 57.042 205.324 57.042 205.18 57.0843 205.054 57.1604 204.927 57.2365 204.825 57.3464 204.758 57.4732 204.682 57.6 204.648 57.7353 204.648 57.879 204.648 58.0143 204.682 58.1495 204.749 58.2764 204.817 58.4116 204.91 58.5469 205.02 58.6906 205.13 58.8343 205.265 58.995 205.4 59.1641L208.013 62.3937 207.404 62.3937 205.13 59.5952C204.935 59.3585 204.766 59.1472 204.622 58.9696 204.47 58.7836 204.36 58.6061 204.267 58.437 204.183 58.2679 204.141 58.0819 204.141 57.879 204.141 57.6338 204.2 57.414 204.31 57.2196 204.42 57.0336 204.58 56.8814 204.775 56.7715 204.969 56.6616 205.206 56.6108 205.459 56.6108 205.713 56.6108 205.958 56.6616 206.153 56.7715 206.347 56.8814 206.499 57.0251 206.609 57.2026 206.719 57.3802 206.77 57.5831 206.77 57.7945 206.77 58.0481 206.702 58.2764 206.567 58.4793 206.432 58.6822 206.237 58.8766 205.984 59.0626L204.935 59.8404C204.648 60.0518 204.453 60.2547 204.352 60.4322 204.25 60.6182 204.191 60.7704 204.191 60.8972 204.191 61.1001 204.242 61.2861 204.352 61.4552 204.453 61.6243 204.606 61.7596 204.792 61.8695 204.978 61.9794 205.189 62.0217 205.434 62.0217 205.679 62.0217 205.891 61.9709 206.102 61.8779 206.313 61.7849 206.499 61.6497 206.668 61.4721 206.838 61.2946 206.973 61.0832 207.074 60.838 207.176 60.5929 207.235 60.3223 207.252 60.018L207.734 60.018C207.725 60.3308 207.683 60.5929 207.607 60.8042 207.531 61.0156 207.446 61.1931 207.353 61.3284 207.26 61.4637 207.176 61.5736 207.1 61.6581 207.083 61.6835 207.066 61.7004 207.049 61.7258 207.032 61.7511 207.015 61.768 207.007 61.7934 206.829 61.9963 206.609 62.1569 206.33 62.2753 206.051 62.3937 205.764 62.4528 205.451 62.4528L205.468 62.4697Z" fill="#002B24" transform="matrix(1.00711 0 0 1 210 17)"/><path d="M211.175 56.67 211.175 62.3937 210.65 62.3937 210.65 56.67 211.175 56.67ZM212.324 62.3937 210.938 62.3937 210.938 61.9287 212.291 61.9287C212.781 61.9287 213.195 61.8357 213.525 61.6412 213.855 61.4468 214.108 61.1678 214.269 60.8127 214.43 60.4576 214.523 60.0264 214.523 59.5276 214.523 59.0288 214.438 58.6145 214.277 58.2594 214.117 57.9044 213.872 57.6338 213.559 57.4394 213.246 57.2449 212.849 57.1519 212.392 57.1519L210.913 57.1519 210.913 56.6785 212.417 56.6785C212.967 56.6785 213.432 56.7884 213.821 57.0166 214.21 57.2449 214.506 57.5746 214.717 57.9974 214.928 58.4201 215.03 58.9273 215.03 59.5192 215.03 60.111 214.928 60.6351 214.717 61.0663 214.506 61.4975 214.201 61.8272 213.795 62.0555 213.39 62.2838 212.899 62.4021 212.333 62.4021L212.324 62.3937Z" fill="#002B24" transform="matrix(1.00711 0 0 1 210 17)"/><path d="M216.569 56.67 216.569 62.3937 216.044 62.3937 216.044 56.67 216.569 56.67ZM217.727 62.3937 216.34 62.3937 216.34 61.9287 217.693 61.9287C218.183 61.9287 218.598 61.8357 218.927 61.6412 219.257 61.4468 219.511 61.1678 219.671 60.8127 219.832 60.4576 219.925 60.0264 219.925 59.5276 219.925 59.0288 219.84 58.6145 219.68 58.2594 219.519 57.9044 219.274 57.6338 218.961 57.4394 218.648 57.2449 218.251 57.1519 217.794 57.1519L216.315 57.1519 216.315 56.6785 217.82 56.6785C218.369 56.6785 218.834 56.7884 219.223 57.0166 219.612 57.2449 219.908 57.5746 220.119 57.9974 220.331 58.4201 220.432 58.9273 220.432 59.5192 220.432 60.111 220.331 60.6351 220.119 61.0663 219.908 61.4975 219.604 61.8272 219.198 62.0555 218.792 62.2838 218.302 62.4021 217.735 62.4021L217.727 62.3937Z" fill="#002B24" transform="matrix(1.00711 0 0 1 210 17)"/><path d="M223.155 62.4867C222.766 62.4867 222.427 62.419 222.14 62.2922 221.853 62.1654 221.624 61.9879 221.464 61.7511 221.303 61.5229 221.21 61.2523 221.185 60.9564L221.717 60.9564C221.734 61.1847 221.81 61.3791 221.946 61.5313 222.072 61.6835 222.241 61.8018 222.453 61.8864 222.664 61.9709 222.893 62.0048 223.155 62.0048 223.442 62.0048 223.696 61.954 223.915 61.861 224.135 61.768 224.313 61.6328 224.44 61.4552 224.566 61.2861 224.634 61.0832 224.634 60.855 224.634 60.6605 224.583 60.4999 224.482 60.3646 224.38 60.2378 224.237 60.1279 224.059 60.0349 223.882 59.9419 223.67 59.8658 223.434 59.7982L222.757 59.5952C222.309 59.4684 221.962 59.2824 221.709 59.0457 221.464 58.809 221.337 58.5046 221.337 58.1411 221.337 57.8367 221.421 57.5662 221.582 57.3295 221.743 57.0927 221.971 56.9152 222.25 56.7799 222.529 56.6447 222.85 56.5855 223.197 56.5855 223.543 56.5855 223.865 56.6531 224.144 56.7799 224.414 56.9152 224.634 57.0927 224.795 57.321 224.955 57.5493 225.04 57.8029 225.057 58.0988L224.55 58.0988C224.516 57.7775 224.38 57.5324 224.127 57.3379 223.873 57.1435 223.56 57.0589 223.18 57.0589 222.918 57.0589 222.681 57.1012 222.478 57.1942 222.275 57.2872 222.115 57.414 222.005 57.5746 221.886 57.7353 221.836 57.9213 221.836 58.1242 221.836 58.3271 221.895 58.4877 222.005 58.623 222.115 58.7583 222.258 58.8682 222.436 58.9527 222.613 59.0373 222.791 59.1049 222.977 59.1641L223.577 59.3332C223.763 59.3839 223.941 59.4515 224.127 59.5276 224.304 59.6037 224.473 59.7052 224.626 59.8235 224.778 59.9419 224.905 60.0856 224.998 60.2547 225.091 60.4238 225.141 60.6267 225.141 60.8634 225.141 61.1678 225.065 61.4383 224.905 61.6835 224.744 61.9287 224.516 62.1231 224.22 62.2668 223.924 62.4106 223.569 62.4782 223.155 62.4782L223.155 62.4867Z" fill="#002B24" transform="matrix(1.00711 0 0 1 210 17)"/><path d="M229.259 62.4698C228.963 62.4698 228.692 62.419 228.464 62.3091 228.227 62.1992 228.05 62.047 227.914 61.8441 227.779 61.6412 227.711 61.4045 227.711 61.134L227.711 61.041 228.227 61.041 228.227 61.134C228.227 61.303 228.269 61.4552 228.362 61.582 228.455 61.7089 228.574 61.8103 228.726 61.8864 228.878 61.9625 229.056 61.9963 229.25 61.9963 229.445 61.9963 229.631 61.954 229.783 61.8695 229.935 61.7849 230.053 61.6497 230.146 61.4721 230.239 61.2946 230.273 61.0663 230.273 60.7958L230.273 56.6616 230.789 56.6616 230.789 60.7958C230.789 61.1678 230.721 61.4806 230.594 61.7258 230.459 61.9709 230.282 62.1569 230.045 62.2838 229.817 62.4106 229.546 62.4698 229.242 62.4698L229.259 62.4698Z" fill="#002B24" transform="matrix(1.00711 0 0 1 210 17)"/><path d="M233.173 62.4867C232.911 62.4867 232.674 62.4359 232.463 62.3345 232.252 62.233 232.074 62.0893 231.947 61.8949 231.82 61.7004 231.753 61.4637 231.753 61.1931 231.753 60.9818 231.795 60.8042 231.871 60.6605 231.947 60.5168 232.066 60.3984 232.209 60.3054 232.361 60.2124 232.531 60.1363 232.733 60.0856 232.936 60.0264 233.156 59.9926 233.401 59.9588 233.638 59.925 233.849 59.8996 234.01 59.8827 234.179 59.8573 234.306 59.8235 234.39 59.7812 234.475 59.739 234.517 59.6544 234.517 59.5445L234.517 59.4431C234.517 59.1472 234.433 58.9189 234.255 58.7498 234.078 58.5807 233.833 58.4962 233.503 58.4962 233.173 58.4962 232.936 58.5638 232.742 58.6991 232.547 58.8344 232.412 58.995 232.336 59.181L231.863 59.0119C231.964 58.7752 232.091 58.5892 232.268 58.4539 232.438 58.3102 232.632 58.2087 232.843 58.1495 233.055 58.0904 233.275 58.0565 233.486 58.0565 233.647 58.0565 233.824 58.0819 233.993 58.1242 234.171 58.1665 234.331 58.2425 234.492 58.344 234.644 58.4454 234.771 58.5976 234.864 58.7836 234.957 58.9696 235.008 59.2063 235.008 59.4938L235.008 62.4021 234.509 62.4021 234.509 61.7258 234.475 61.7258C234.416 61.8526 234.331 61.9709 234.213 62.0893 234.095 62.2077 233.951 62.3091 233.773 62.3852 233.596 62.4613 233.384 62.5036 233.148 62.5036L233.173 62.4867ZM233.249 62.0386C233.511 62.0386 233.74 61.9794 233.934 61.861 234.128 61.7427 234.281 61.5905 234.382 61.3876 234.484 61.1931 234.543 60.9733 234.543 60.745L234.543 60.1279C234.543 60.1279 234.441 60.1955 234.357 60.2209 234.272 60.2462 234.171 60.2716 234.061 60.297 233.951 60.3139 233.833 60.3392 233.723 60.3477 233.613 60.3561 233.511 60.3731 233.418 60.39 233.182 60.4238 232.97 60.4661 232.801 60.5337 232.632 60.6013 232.497 60.6859 232.404 60.7958 232.311 60.9057 232.268 61.0494 232.268 61.2185 232.268 61.4806 232.361 61.675 232.547 61.8188 232.733 61.9625 232.97 62.0301 233.249 62.0301L233.249 62.0386Z" fill="#002B24" transform="matrix(1.00711 0 0 1 210 17)"/><path d="M236.107 64 236.107 58.0988 236.589 58.0988 236.589 58.9189 236.648 58.9189C236.707 58.7921 236.792 58.6568 236.893 58.5215 236.994 58.3863 237.138 58.2679 237.316 58.1749 237.493 58.0819 237.705 58.0312 237.967 58.0312 238.322 58.0312 238.626 58.1242 238.897 58.3102 239.159 58.4962 239.37 58.7583 239.514 59.088 239.666 59.4177 239.734 59.8066 239.734 60.2462 239.734 60.6859 239.658 61.0748 239.514 61.4129 239.37 61.7511 239.159 62.0132 238.897 62.1908 238.635 62.3767 238.322 62.4697 237.967 62.4697 237.705 62.4697 237.493 62.419 237.316 62.326 237.138 62.233 237.003 62.1147 236.893 61.9794 236.783 61.8441 236.707 61.7089 236.648 61.5736L236.606 61.5736 236.606 63.9746 236.107 63.9746 236.107 64ZM237.908 62.0301C238.187 62.0301 238.432 61.954 238.626 61.7934 238.821 61.6328 238.973 61.4214 239.074 61.1509 239.176 60.8803 239.226 60.5844 239.226 60.2547 239.226 59.925 239.176 59.6291 239.074 59.3585 238.973 59.0964 238.821 58.8851 238.626 58.7244 238.432 58.5638 238.187 58.4877 237.908 58.4877 237.629 58.4877 237.383 58.5638 237.189 58.716 236.994 58.8682 236.842 59.0711 236.741 59.3332 236.639 59.5952 236.589 59.8996 236.589 60.2462 236.589 60.5929 236.639 60.8972 236.741 61.1593 236.842 61.4214 236.994 61.6412 237.189 61.7934 237.383 61.9456 237.62 62.0217 237.899 62.0217L237.908 62.0301Z" fill="#002B24" transform="matrix(1.00711 0 0 1 210 17)"/><path d="M241.771 62.4867C241.509 62.4867 241.272 62.4359 241.061 62.3345 240.85 62.233 240.672 62.0893 240.545 61.8949 240.418 61.7004 240.351 61.4637 240.351 61.1931 240.351 60.9818 240.393 60.8042 240.469 60.6605 240.545 60.5168 240.664 60.3984 240.807 60.3054 240.96 60.2124 241.129 60.1363 241.332 60.0856 241.534 60.0264 241.754 59.9926 241.999 59.9588 242.236 59.925 242.448 59.8996 242.608 59.8827 242.777 59.8573 242.904 59.8235 242.989 59.7812 243.073 59.739 243.115 59.6544 243.115 59.5445L243.115 59.4431C243.115 59.1472 243.031 58.9189 242.853 58.7498 242.676 58.5807 242.431 58.4962 242.101 58.4962 241.771 58.4962 241.534 58.5638 241.34 58.6991 241.146 58.8344 241.01 58.995 240.934 59.181L240.461 59.0119C240.562 58.7752 240.689 58.5892 240.867 58.4539 241.036 58.3102 241.23 58.2087 241.441 58.1495 241.653 58.0904 241.873 58.0565 242.084 58.0565 242.245 58.0565 242.422 58.0819 242.591 58.1242 242.769 58.1665 242.929 58.2425 243.09 58.344 243.242 58.4454 243.369 58.5976 243.462 58.7836 243.555 58.9696 243.606 59.2063 243.606 59.4938L243.606 62.4021 243.107 62.4021 243.107 61.7258 243.073 61.7258C243.014 61.8526 242.929 61.9709 242.811 62.0893 242.693 62.2077 242.549 62.3091 242.371 62.3852 242.194 62.4613 241.983 62.5036 241.746 62.5036L241.771 62.4867ZM241.839 62.0386C242.101 62.0386 242.329 61.9794 242.524 61.861 242.718 61.7427 242.87 61.5905 242.972 61.3876 243.073 61.1931 243.132 60.9733 243.132 60.745L243.132 60.1279C243.132 60.1279 243.031 60.1955 242.946 60.2209 242.862 60.2462 242.76 60.2716 242.65 60.297 242.541 60.3139 242.422 60.3392 242.312 60.3477 242.202 60.3561 242.101 60.3731 242.008 60.39 241.771 60.4238 241.56 60.4661 241.391 60.5337 241.222 60.6013 241.086 60.6859 240.993 60.7958 240.9 60.9057 240.858 61.0494 240.858 61.2185 240.858 61.4806 240.951 61.675 241.137 61.8188 241.323 61.9625 241.56 62.0301 241.839 62.0301L241.839 62.0386Z" fill="#002B24" transform="matrix(1.00711 0 0 1 210 17)"/><path d="M245.195 59.7136 245.195 62.3937 244.696 62.3937 244.696 58.0988 245.178 58.0988 245.178 58.7752 245.229 58.7752C245.33 58.5554 245.483 58.3778 245.694 58.2425 245.905 58.1073 246.167 58.0396 246.489 58.0396 246.776 58.0396 247.03 58.0988 247.25 58.2172 247.469 58.3355 247.639 58.5131 247.765 58.7498 247.892 58.9865 247.951 59.2655 247.951 59.6122L247.951 62.3937 247.453 62.3937 247.453 59.646C247.453 59.2909 247.351 59.0119 247.157 58.809 246.962 58.5976 246.692 58.4962 246.362 58.4962 246.134 58.4962 245.939 58.5469 245.762 58.6484 245.584 58.7498 245.449 58.8851 245.347 59.0711 245.246 59.2571 245.195 59.4684 245.195 59.7221L245.195 59.7136Z" fill="#002B24" transform="matrix(1.00711 0 0 1 210 17)"/><path d="M97.9614 40.5559 97.9614 50.3461 97.0652 50.3461 97.0652 40.5559 97.9614 40.5559ZM99.9398 50.3377 97.5725 50.3377 97.5725 49.5345 99.889 49.5345C100.726 49.5345 101.436 49.3654 102.003 49.0357 102.569 48.7059 102.992 48.2325 103.279 47.6153 103.567 46.9982 103.702 46.2626 103.702 45.4087 103.702 44.5548 103.567 43.8447 103.288 43.2359 103.009 42.6272 102.603 42.1622 102.062 41.841 101.521 41.5112 100.853 41.3506 100.058 41.3506L97.5387 41.3506 97.5387 40.539 100.109 40.539C101.039 40.539 101.842 40.7334 102.51 41.1223 103.178 41.5112 103.685 42.0692 104.04 42.7963 104.395 43.5234 104.573 44.3942 104.573 45.4003 104.573 46.4063 104.395 47.311 104.032 48.0465 103.668 48.782 103.144 49.34 102.459 49.7374 101.766 50.1263 100.937 50.3292 99.9567 50.3292L99.9398 50.3377Z" fill="#002B24" transform="matrix(1.00711 0 0 1 210 17)"/><path d="M107.87 41.7395C107.692 41.7395 107.549 41.6803 107.422 41.562 107.295 41.4436 107.236 41.2999 107.236 41.1223 107.236 40.9448 107.295 40.8095 107.422 40.6911 107.549 40.5728 107.692 40.5136 107.87 40.5136 108.048 40.5136 108.191 40.5728 108.318 40.6911 108.445 40.8095 108.504 40.9532 108.504 41.1223 108.504 41.2914 108.445 41.4351 108.318 41.562 108.191 41.6803 108.048 41.7395 107.87 41.7395ZM107.439 50.3376 107.439 42.9907 108.284 42.9907 108.284 50.3376 107.439 50.3376Z" fill="#002B24" transform="matrix(1.00711 0 0 1 210 17)"/><path d="M114.228 53.2375C113.475 53.2375 112.867 53.0938 112.393 52.8148 111.92 52.5358 111.573 52.1807 111.362 51.7664L112.055 51.3099C112.156 51.4959 112.292 51.6819 112.478 51.8594 112.655 52.037 112.892 52.1807 113.171 52.2991 113.458 52.4174 113.805 52.4766 114.219 52.4766 114.87 52.4766 115.394 52.316 115.8 51.9863 116.198 51.665 116.4 51.1577 116.4 50.4729L116.4 48.8158 116.316 48.8158C116.223 49.0357 116.079 49.2639 115.893 49.4837 115.707 49.7036 115.471 49.8896 115.175 50.0333 114.879 50.177 114.507 50.2531 114.067 50.2531 113.484 50.2531 112.96 50.1094 112.511 49.8219 112.055 49.5345 111.7 49.1202 111.438 48.5791 111.176 48.038 111.049 47.3955 111.049 46.6515 111.049 45.9075 111.176 45.2565 111.429 44.6901 111.683 44.1236 112.038 43.684 112.495 43.3712 112.951 43.0584 113.484 42.8978 114.084 42.8978 114.532 42.8978 114.913 42.9738 115.208 43.1345 115.504 43.2951 115.741 43.4896 115.927 43.7263 116.113 43.963 116.248 44.1828 116.35 44.4026L116.443 44.4026 116.443 42.9992 117.254 42.9992 117.254 50.5321C117.254 51.1577 117.128 51.665 116.865 52.0623 116.603 52.4597 116.248 52.7556 115.792 52.9501 115.335 53.1445 114.82 53.2375 114.236 53.2375L114.228 53.2375ZM114.177 49.4837C114.879 49.4837 115.428 49.2301 115.826 48.7228 116.223 48.2156 116.417 47.5223 116.417 46.6346 116.417 46.0597 116.333 45.5524 116.155 45.1044 115.978 44.6563 115.724 44.3096 115.394 44.056 115.056 43.8024 114.65 43.6756 114.177 43.6756 113.704 43.6756 113.264 43.8108 112.926 44.0729 112.588 44.335 112.334 44.6901 112.156 45.1382 111.987 45.5863 111.894 46.0851 111.894 46.6346 111.894 47.1841 111.979 47.6914 112.156 48.1226 112.334 48.5538 112.588 48.8835 112.926 49.1287 113.264 49.3654 113.678 49.4922 114.16 49.4922L114.177 49.4837Z" fill="#002B24" transform="matrix(1.00711 0 0 1 210 17)"/><path d="M120.831 41.7395C120.653 41.7395 120.509 41.6803 120.383 41.562 120.256 41.4436 120.197 41.2999 120.197 41.1223 120.197 40.9448 120.256 40.8095 120.383 40.6911 120.509 40.5728 120.653 40.5136 120.831 40.5136 121.008 40.5136 121.152 40.5728 121.279 40.6911 121.406 40.8095 121.465 40.9532 121.465 41.1223 121.465 41.2914 121.406 41.4351 121.279 41.562 121.152 41.6803 121.008 41.7395 120.831 41.7395ZM120.399 50.3376 120.399 42.9907 121.245 42.9907 121.245 50.3376 120.399 50.3376Z" fill="#002B24" transform="matrix(1.00711 0 0 1 210 17)"/><path d="M127.281 42.9992 127.281 43.7432 123.781 43.7432 123.781 42.9992 127.281 42.9992ZM124.872 41.2491 125.717 41.2491 125.717 48.4185C125.717 48.8158 125.819 49.1202 126.013 49.3147 126.208 49.5176 126.487 49.6106 126.833 49.6106 126.909 49.6106 126.994 49.6106 127.07 49.5937 127.155 49.5852 127.239 49.5683 127.332 49.5429L127.518 50.3123C127.417 50.3546 127.298 50.3799 127.171 50.4053 127.036 50.4306 126.901 50.4391 126.766 50.4391 126.225 50.4391 125.768 50.27 125.413 49.9403 125.058 49.6021 124.872 49.1625 124.872 48.6214L124.872 41.2491Z" fill="#002B24" transform="matrix(1.00711 0 0 1 210 17)"/><path d="M132.151 50.5067C131.711 50.5067 131.306 50.4222 130.934 50.2446 130.562 50.0671 130.274 49.8219 130.054 49.4922 129.835 49.1625 129.733 48.7567 129.733 48.2832 129.733 47.9197 129.801 47.6153 129.936 47.3701 130.071 47.125 130.266 46.9221 130.519 46.7614 130.773 46.6008 131.069 46.474 131.416 46.381 131.762 46.288 132.143 46.2119 132.557 46.1696 132.971 46.1189 133.318 46.0682 133.597 46.0343 133.884 46.0005 134.096 45.9329 134.248 45.8568 134.4 45.7723 134.468 45.637 134.468 45.4594L134.468 45.2904C134.468 44.7831 134.315 44.3942 134.02 44.1067 133.724 43.8193 133.292 43.6756 132.734 43.6756 132.176 43.6756 131.771 43.7939 131.441 44.0222 131.111 44.2505 130.874 44.5295 130.748 44.8423L129.936 44.5464C130.105 44.149 130.333 43.8277 130.629 43.591 130.925 43.3543 131.255 43.1767 131.618 43.0668 131.982 42.9569 132.346 42.9062 132.718 42.9062 132.997 42.9062 133.292 42.94 133.588 43.0161 133.893 43.0922 134.172 43.219 134.434 43.3966 134.696 43.5741 134.907 43.8277 135.076 44.149 135.237 44.4703 135.322 44.8761 135.322 45.3664L135.322 50.3461 134.468 50.3461 134.468 49.1794 134.417 49.1794C134.324 49.3907 134.172 49.6021 133.969 49.805 133.766 50.0079 133.512 50.177 133.216 50.3038 132.912 50.4391 132.557 50.4983 132.143 50.4983L132.151 50.5067ZM132.278 49.7289C132.726 49.7289 133.123 49.6275 133.453 49.433 133.783 49.2301 134.036 48.968 134.214 48.6299 134.392 48.2917 134.485 47.9281 134.485 47.5223L134.485 46.4655C134.417 46.5247 134.315 46.5839 134.163 46.6262 134.02 46.6769 133.85 46.7191 133.656 46.753 133.462 46.7868 133.276 46.8206 133.081 46.846 132.887 46.8713 132.718 46.8967 132.565 46.9136 132.151 46.9643 131.796 47.0489 131.509 47.1588 131.221 47.2687 130.984 47.4209 130.832 47.6069 130.68 47.7929 130.596 48.038 130.596 48.3339 130.596 48.7736 130.756 49.1202 131.069 49.3654 131.39 49.6106 131.788 49.7374 132.278 49.7374L132.278 49.7289Z" fill="#002B24" transform="matrix(1.00711 0 0 1 210 17)"/><path d="M139.329 40.5559 139.329 50.3461 138.483 50.3461 138.483 40.5559 139.329 40.5559Z" fill="#002B24" transform="matrix(1.00711 0 0 1 210 17)"/><path d="M148.215 40.5559 148.215 50.3461 147.318 50.3461 147.318 40.5559 148.215 40.5559ZM150.193 50.3377 147.826 50.3377 147.826 49.5345 150.142 49.5345C150.979 49.5345 151.689 49.3654 152.256 49.0357 152.822 48.7059 153.245 48.2325 153.532 47.6153 153.82 46.9982 153.955 46.2626 153.955 45.4087 153.955 44.5548 153.82 43.8447 153.541 43.2359 153.262 42.6272 152.856 42.1622 152.315 41.841 151.774 41.5112 151.106 41.3506 150.311 41.3506L147.792 41.3506 147.792 40.539 150.362 40.539C151.292 40.539 152.095 40.7334 152.763 41.1223 153.431 41.5112 153.938 42.0692 154.293 42.7963 154.648 43.5234 154.826 44.3942 154.826 45.4003 154.826 46.4063 154.648 47.311 154.285 48.0465 153.921 48.782 153.397 49.34 152.712 49.7374 152.019 50.1263 151.19 50.3292 150.21 50.3292L150.193 50.3377Z" fill="#002B24" transform="matrix(1.00711 0 0 1 210 17)"/><path d="M159.746 50.5067C159.307 50.5067 158.901 50.4222 158.529 50.2446 158.157 50.0671 157.869 49.8219 157.65 49.4922 157.43 49.1625 157.328 48.7567 157.328 48.2832 157.328 47.9197 157.396 47.6153 157.531 47.3701 157.667 47.125 157.861 46.9221 158.115 46.7614 158.368 46.6008 158.664 46.474 159.011 46.381 159.357 46.288 159.738 46.2119 160.152 46.1696 160.566 46.1189 160.913 46.0682 161.192 46.0343 161.479 46.0005 161.691 45.9329 161.843 45.8568 161.995 45.7723 162.063 45.637 162.063 45.4594L162.063 45.2904C162.063 44.7831 161.911 44.3942 161.615 44.1067 161.319 43.8193 160.888 43.6756 160.33 43.6756 159.772 43.6756 159.366 43.7939 159.036 44.0222 158.706 44.2505 158.47 44.5295 158.343 44.8423L157.531 44.5464C157.7 44.149 157.929 43.8277 158.225 43.591 158.52 43.3543 158.85 43.1767 159.214 43.0668 159.577 42.9569 159.941 42.9062 160.313 42.9062 160.592 42.9062 160.888 42.94 161.184 43.0161 161.488 43.0922 161.767 43.219 162.029 43.3966 162.291 43.5741 162.502 43.8277 162.672 44.149 162.832 44.4703 162.917 44.8761 162.917 45.3664L162.917 50.3461 162.063 50.3461 162.063 49.1794 162.012 49.1794C161.919 49.3907 161.767 49.6021 161.564 49.805 161.361 50.0079 161.108 50.177 160.812 50.3038 160.507 50.4391 160.152 50.4983 159.738 50.4983L159.746 50.5067ZM159.865 49.7289C160.313 49.7289 160.71 49.6275 161.04 49.433 161.37 49.2301 161.623 48.968 161.801 48.6299 161.978 48.2917 162.071 47.9281 162.071 47.5223L162.071 46.4655C162.004 46.5247 161.902 46.5839 161.75 46.6262 161.606 46.6769 161.437 46.7191 161.243 46.753 161.048 46.7868 160.862 46.8206 160.668 46.846 160.473 46.8713 160.304 46.8967 160.152 46.9136 159.738 46.9643 159.383 47.0489 159.095 47.1588 158.808 47.2687 158.571 47.4209 158.419 47.6069 158.267 47.7929 158.182 48.038 158.182 48.3339 158.182 48.7736 158.343 49.1202 158.656 49.3654 158.977 49.6106 159.374 49.7374 159.865 49.7374L159.865 49.7289Z" fill="#002B24" transform="matrix(1.00711 0 0 1 210 17)"/><path d="M168.953 42.9992 168.953 43.7432 165.453 43.7432 165.453 42.9992 168.953 42.9992ZM166.552 41.2491 167.398 41.2491 167.398 48.4185C167.398 48.8158 167.499 49.1202 167.694 49.3147 167.888 49.5176 168.167 49.6106 168.514 49.6106 168.59 49.6106 168.674 49.6106 168.75 49.5937 168.835 49.5852 168.919 49.5683 169.012 49.5429L169.198 50.3123C169.097 50.3546 168.979 50.3799 168.852 50.4053 168.717 50.4306 168.581 50.4391 168.446 50.4391 167.905 50.4391 167.448 50.27 167.093 49.9403 166.738 49.6021 166.552 49.1625 166.552 48.6214L166.552 41.2491Z" fill="#002B24" transform="matrix(1.00711 0 0 1 210 17)"/><path d="M173.831 50.5067C173.392 50.5067 172.986 50.4222 172.614 50.2446 172.242 50.0671 171.955 49.8219 171.735 49.4922 171.515 49.1625 171.413 48.7567 171.413 48.2832 171.413 47.9197 171.481 47.6153 171.616 47.3701 171.752 47.125 171.946 46.9221 172.2 46.7614 172.453 46.6008 172.749 46.474 173.096 46.381 173.443 46.288 173.823 46.2119 174.237 46.1696 174.652 46.1189 174.998 46.0682 175.277 46.0343 175.565 46.0005 175.776 45.9329 175.928 45.8568 176.08 45.7723 176.148 45.637 176.148 45.4594L176.148 45.2904C176.148 44.7831 175.996 44.3942 175.7 44.1067 175.404 43.8193 174.973 43.6756 174.415 43.6756 173.857 43.6756 173.451 43.7939 173.121 44.0222 172.792 44.2505 172.555 44.5295 172.428 44.8423L171.616 44.5464C171.785 44.149 172.014 43.8277 172.31 43.591 172.606 43.3543 172.935 43.1767 173.299 43.0668 173.662 42.9569 174.026 42.9062 174.398 42.9062 174.677 42.9062 174.973 42.94 175.269 43.0161 175.573 43.0922 175.852 43.219 176.114 43.3966 176.376 43.5741 176.588 43.8277 176.757 44.149 176.917 44.4703 177.002 44.8761 177.002 45.3664L177.002 50.3461 176.148 50.3461 176.148 49.1794 176.097 49.1794C176.004 49.3907 175.852 49.6021 175.649 49.805 175.446 50.0079 175.193 50.177 174.897 50.3038 174.592 50.4391 174.237 50.4983 173.823 50.4983L173.831 50.5067ZM173.95 49.7289C174.398 49.7289 174.795 49.6275 175.125 49.433 175.455 49.2301 175.708 48.968 175.886 48.6299 176.063 48.2917 176.156 47.9281 176.156 47.5223L176.156 46.4655C176.089 46.5247 175.987 46.5839 175.835 46.6262 175.691 46.6769 175.522 46.7191 175.328 46.753 175.133 46.7868 174.947 46.8206 174.753 46.846 174.559 46.8713 174.389 46.8967 174.237 46.9136 173.823 46.9643 173.468 47.0489 173.18 47.1588 172.893 47.2687 172.656 47.4209 172.504 47.6069 172.352 47.7929 172.267 48.038 172.267 48.3339 172.267 48.7736 172.428 49.1202 172.741 49.3654 173.062 49.6106 173.459 49.7374 173.95 49.7374L173.95 49.7289Z" fill="#002B24" transform="matrix(1.00711 0 0 1 210 17)"/><path d="M187.925 50.5067C187.257 50.5067 186.682 50.3968 186.192 50.177 185.701 49.9572 185.313 49.6528 185.034 49.2555 184.755 48.8581 184.594 48.41 184.56 47.8859L185.473 47.8859C185.507 48.2748 185.634 48.6045 185.854 48.875 186.073 49.1456 186.361 49.3485 186.724 49.4837 187.08 49.619 187.485 49.6867 187.916 49.6867 188.407 49.6867 188.846 49.6021 189.227 49.4415 189.607 49.2808 189.903 49.0526 190.123 48.7567 190.343 48.4608 190.444 48.1226 190.444 47.7252 190.444 47.3955 190.36 47.1165 190.182 46.8882 190.005 46.66 189.768 46.474 189.464 46.3218 189.159 46.1696 188.804 46.0343 188.39 45.916L187.223 45.5778C186.454 45.358 185.862 45.0367 185.439 44.6309 185.017 44.2251 184.805 43.7094 184.805 43.0838 184.805 42.5596 184.949 42.0946 185.228 41.6972 185.507 41.2999 185.896 40.9871 186.378 40.7588 186.86 40.5305 187.401 40.4206 188.001 40.4206 188.601 40.4206 189.151 40.5305 189.616 40.7588 190.081 40.9871 190.453 41.2914 190.732 41.6803 191.011 42.0692 191.155 42.5088 191.18 43.0077L190.309 43.0077C190.258 42.4666 190.022 42.0354 189.59 41.7141 189.168 41.3929 188.627 41.2322 187.976 41.2322 187.528 41.2322 187.13 41.3083 186.784 41.469 186.437 41.6296 186.166 41.841 185.972 42.1199 185.778 42.3989 185.676 42.7118 185.676 43.0584 185.676 43.405 185.769 43.684 185.964 43.9123 186.158 44.1406 186.403 44.3266 186.699 44.4703 186.995 44.614 187.299 44.7324 187.621 44.8338L188.652 45.1297C188.965 45.2227 189.278 45.3326 189.582 45.4679 189.895 45.6032 190.182 45.7723 190.436 45.9667 190.69 46.1612 190.909 46.4148 191.07 46.7022 191.231 46.9897 191.307 47.3448 191.307 47.7506 191.307 48.2663 191.171 48.7313 190.901 49.154 190.63 49.5683 190.241 49.9065 189.734 50.1432 189.227 50.3884 188.618 50.5067 187.908 50.5067L187.925 50.5067Z" fill="#002B24" transform="matrix(1.00711 0 0 1 210 17)"/><path d="M197.047 50.4983C196.413 50.4983 195.855 50.3376 195.365 50.0164 194.883 49.6951 194.502 49.247 194.223 48.6806 193.944 48.1141 193.809 47.4547 193.809 46.7107 193.809 45.9667 193.944 45.2988 194.223 44.7239 194.502 44.149 194.874 43.7094 195.365 43.3881 195.855 43.0668 196.413 42.9062 197.047 42.9062 197.681 42.9062 198.239 43.0668 198.721 43.3881 199.203 43.7094 199.584 44.1575 199.863 44.7239 200.142 45.2988 200.277 45.9583 200.277 46.7107 200.277 47.4631 200.142 48.1057 199.863 48.6806 199.592 49.2555 199.212 49.6951 198.721 50.0164 198.239 50.3376 197.673 50.4983 197.039 50.4983L197.047 50.4983ZM197.047 49.7205C197.563 49.7205 197.994 49.5852 198.341 49.3062 198.696 49.0357 198.958 48.6637 199.144 48.2071 199.33 47.7506 199.423 47.2433 199.423 46.7022 199.423 46.1612 199.33 45.6454 199.144 45.1889 198.958 44.7324 198.687 44.3604 198.332 44.0814 197.977 43.8024 197.546 43.6671 197.039 43.6671 196.532 43.6671 196.1 43.8024 195.745 44.0814 195.39 44.3604 195.12 44.7239 194.934 45.1889 194.748 45.6454 194.655 46.1527 194.655 46.7022 194.655 47.2518 194.748 47.7506 194.934 48.2071 195.12 48.6637 195.39 49.0357 195.745 49.3062 196.1 49.5767 196.532 49.7205 197.039 49.7205L197.047 49.7205Z" fill="#002B24" transform="matrix(1.00711 0 0 1 210 17)"/><path d="M203.887 40.5559 203.887 50.3461 203.041 50.3461 203.041 40.5559 203.887 40.5559Z" fill="#002B24" transform="matrix(1.00711 0 0 1 210 17)"/><path d="M211.699 47.5392 211.699 42.9908 212.544 42.9908 212.544 50.3377 211.699 50.3377 211.699 49.1202 211.631 49.1202C211.454 49.5007 211.183 49.8135 210.811 50.0587 210.439 50.3123 209.983 50.4307 209.441 50.4307 208.976 50.4307 208.562 50.3292 208.199 50.1263 207.835 49.9234 207.556 49.619 207.345 49.2217 207.133 48.8243 207.032 48.334 207.032 47.7506L207.032 42.9992 207.877 42.9992 207.877 47.7083C207.877 48.2748 208.047 48.7398 208.385 49.0864 208.723 49.433 209.154 49.6106 209.678 49.6021 210.008 49.6021 210.329 49.526 210.634 49.3654 210.938 49.2048 211.192 48.9765 211.386 48.6721 211.58 48.3678 211.682 47.9873 211.682 47.5392L211.699 47.5392Z" fill="#002B24" transform="matrix(1.00711 0 0 1 210 17)"/><path d="M218.572 42.9992 218.572 43.7432 215.072 43.7432 215.072 42.9992 218.572 42.9992ZM216.171 41.2491 217.017 41.2491 217.017 48.4185C217.017 48.8158 217.118 49.1202 217.313 49.3147 217.507 49.5176 217.786 49.6106 218.133 49.6106 218.209 49.6106 218.293 49.6106 218.369 49.5937 218.454 49.5852 218.538 49.5683 218.631 49.5429L218.817 50.3123C218.716 50.3546 218.598 50.3799 218.471 50.4053 218.336 50.4306 218.2 50.4391 218.065 50.4391 217.524 50.4391 217.067 50.27 216.712 49.9403 216.357 49.6021 216.171 49.1625 216.171 48.6214L216.171 41.2491Z" fill="#002B24" transform="matrix(1.00711 0 0 1 210 17)"/><path d="M221.827 41.7395C221.65 41.7395 221.506 41.6803 221.379 41.562 221.252 41.4436 221.193 41.2999 221.193 41.1223 221.193 40.9448 221.252 40.8095 221.379 40.6911 221.506 40.5728 221.65 40.5136 221.827 40.5136 222.005 40.5136 222.148 40.5728 222.275 40.6911 222.402 40.8095 222.461 40.9532 222.461 41.1223 222.461 41.2914 222.402 41.4351 222.275 41.562 222.148 41.6803 222.005 41.7395 221.827 41.7395ZM221.396 50.3376 221.396 42.9907 222.241 42.9907 222.241 50.3376 221.396 50.3376Z" fill="#002B24" transform="matrix(1.00711 0 0 1 210 17)"/><path d="M228.244 50.4983C227.61 50.4983 227.052 50.3376 226.562 50.0164 226.08 49.6951 225.699 49.247 225.42 48.6806 225.141 48.1141 225.006 47.4547 225.006 46.7107 225.006 45.9667 225.141 45.2988 225.42 44.7239 225.699 44.149 226.071 43.7094 226.562 43.3881 227.052 43.0668 227.61 42.9062 228.244 42.9062 228.878 42.9062 229.436 43.0668 229.918 43.3881 230.4 43.7094 230.78 44.1575 231.059 44.7239 231.338 45.2988 231.474 45.9583 231.474 46.7107 231.474 47.4631 231.338 48.1057 231.059 48.6806 230.789 49.2555 230.408 49.6951 229.918 50.0164 229.436 50.3376 228.87 50.4983 228.236 50.4983L228.244 50.4983ZM228.244 49.7205C228.76 49.7205 229.191 49.5852 229.538 49.3062 229.893 49.0357 230.155 48.6637 230.341 48.2071 230.527 47.7506 230.62 47.2433 230.62 46.7022 230.62 46.1612 230.527 45.6454 230.341 45.1889 230.155 44.7324 229.884 44.3604 229.529 44.0814 229.174 43.8024 228.743 43.6671 228.236 43.6671 227.728 43.6671 227.297 43.8024 226.942 44.0814 226.587 44.3604 226.316 44.7239 226.131 45.1889 225.945 45.6454 225.852 46.1527 225.852 46.7022 225.852 47.2518 225.945 47.7506 226.131 48.2071 226.316 48.6637 226.587 49.0357 226.942 49.3062 227.297 49.5767 227.728 49.7205 228.236 49.7205L228.244 49.7205Z" fill="#002B24" transform="matrix(1.00711 0 0 1 210 17)"/><path d="M235.084 45.7553 235.084 50.3376 234.238 50.3376 234.238 42.9907 235.058 42.9907 235.058 44.1575 235.143 44.1575C235.312 43.777 235.583 43.4727 235.946 43.2444 236.31 43.0161 236.758 42.9062 237.299 42.9062 237.798 42.9062 238.229 43.0077 238.601 43.219 238.973 43.4219 239.269 43.7263 239.48 44.1236 239.691 44.521 239.793 45.0114 239.793 45.5947L239.793 50.3461 238.947 50.3461 238.947 45.6539C238.947 45.0536 238.778 44.5802 238.44 44.2251 238.102 43.87 237.654 43.6925 237.087 43.6925 236.699 43.6925 236.36 43.777 236.056 43.9461 235.752 44.1152 235.515 44.3519 235.346 44.6647 235.177 44.9775 235.084 45.3411 235.084 45.7723L235.084 45.7553Z" fill="#002B24" transform="matrix(1.00711 0 0 1 210 17)"/><path d="M247.858 44.614 247.081 44.8254C246.971 44.4956 246.776 44.2166 246.514 43.9884 246.252 43.7601 245.872 43.6417 245.373 43.6417 244.874 43.6417 244.468 43.7601 244.155 43.9968 243.834 44.2336 243.673 44.5379 243.673 44.9099 243.673 45.2227 243.783 45.4763 243.995 45.6793 244.206 45.8822 244.544 46.0343 245.001 46.1527L246.108 46.4232C246.725 46.5754 247.182 46.8121 247.495 47.1334 247.799 47.4547 247.96 47.8605 247.96 48.3509 247.96 48.7651 247.841 49.1287 247.613 49.4584 247.385 49.7881 247.064 50.0333 246.658 50.2193 246.252 50.4053 245.779 50.4983 245.238 50.4983 244.519 50.4983 243.927 50.3376 243.462 50.0079 242.997 49.6782 242.701 49.2132 242.566 48.6045L243.378 48.41C243.479 48.8412 243.682 49.1709 243.995 49.3992 244.308 49.619 244.713 49.7374 245.212 49.7374 245.77 49.7374 246.227 49.6106 246.565 49.3569 246.903 49.1033 247.081 48.7905 247.081 48.41 247.081 47.8098 246.683 47.404 245.88 47.2095L244.688 46.9221C244.045 46.7699 243.572 46.5247 243.268 46.2034 242.963 45.8737 242.811 45.4679 242.811 44.9775 242.811 44.5717 242.921 44.2166 243.141 43.9038 243.361 43.591 243.665 43.3458 244.054 43.1767 244.443 42.9992 244.874 42.9147 245.364 42.9147 246.041 42.9147 246.573 43.0668 246.979 43.3797 247.385 43.6925 247.672 44.1067 247.85 44.6394L247.858 44.614Z" fill="#002B24" transform="matrix(1.00711 0 0 1 210 17)"/></g></svg>